<?xml version="1.0" standalone="no"?>
<!DOCTYPE svg PUBLIC "-//W3C//DTD SVG 20010904//EN"
 "http://www.w3.org/TR/2001/REC-SVG-20010904/DTD/svg10.dtd">
<svg version="1.0" xmlns="http://www.w3.org/2000/svg"
 width="300.000000pt" height="300.000000pt" viewBox="0 0 300.000000 300.000000"
 preserveAspectRatio="xMidYMid meet">
<metadata>
Created by potrace 1.14, written by Peter Selinger 2001-2017
</metadata>
<g transform="translate(0.000000,300.000000) scale(0.100000,-0.100000)"
fill="#000000" stroke="none">
<path d="M491 2603 c-124 -111 -199 -249 -224 -404 -20 -128 -15 -173 40 -389
l36 -145 -21 -60 c-42 -117 -55 -195 -55 -332 l0 -131 -66 44 c-35 24 -67 42
-69 40 -5 -6 83 -177 123 -241 20 -30 56 -80 81 -111 l46 -56 -41 7 c-23 4
-65 15 -93 26 -64 23 -61 23 -49 1 15 -28 76 -89 111 -110 33 -21 29 -31 -14
-34 -14 -1 -26 -5 -26 -8 0 -18 194 -164 303 -228 220 -130 493 -220 724 -239
190 -16 436 -6 563 23 14 3 36 8 50 10 111 19 390 131 525 211 67 40 194 134
246 182 l54 50 -37 1 c-21 0 -38 3 -37 8 0 4 19 21 41 37 23 17 57 50 77 74
34 42 35 43 11 36 -116 -38 -170 -52 -170 -45 0 4 16 28 37 52 68 81 177 266
198 336 l7 23 -39 -25 c-21 -14 -51 -33 -68 -44 l-30 -18 2 115 c3 123 -17
246 -55 346 l-19 50 38 145 c45 175 52 215 50 300 -4 197 -81 364 -228 500
l-68 62 -56 -6 c-140 -14 -297 -96 -402 -210 -42 -46 -97 -122 -97 -136 0 -18
-18 -18 -101 1 -127 30 -388 34 -537 8 -63 -10 -118 -21 -122 -24 -4 -3 -22
19 -38 47 -81 140 -251 264 -415 302 -107 25 -116 23 -186 -41z"/>
</g>
</svg>
