<?xml version="1.0" standalone="no"?>
<!DOCTYPE svg PUBLIC "-//W3C//DTD SVG 20010904//EN"
 "http://www.w3.org/TR/2001/REC-SVG-20010904/DTD/svg10.dtd">
<svg version="1.0" xmlns="http://www.w3.org/2000/svg"
 width="225.000000pt" height="225.000000pt" viewBox="0 0 225.000000 225.000000"
 preserveAspectRatio="xMidYMid meet">
<metadata>
Created by potrace 1.14, written by Peter Selinger 2001-2017
</metadata>
<g transform="translate(0.000000,225.000000) scale(0.100000,-0.100000)"
fill="#000000" stroke="none">
<path d="M1691 1856 c-9 -11 -6 -16 18 -24 38 -13 57 -47 43 -76 -6 -11 -13
-42 -15 -68 -2 -25 -14 -60 -26 -76 -11 -17 -21 -38 -21 -49 -1 -10 -12 -31
-25 -48 -19 -23 -27 -27 -36 -18 -12 12 -21 107 -19 195 0 25 -3 49 -9 52 -10
6 -33 -49 -24 -58 3 -2 -6 -29 -20 -58 -23 -48 -24 -57 -13 -98 6 -25 24 -64
39 -87 34 -53 74 -59 102 -17 15 23 19 25 32 11 13 -13 13 -18 -1 -45 -22 -42
-20 -52 9 -52 28 0 49 28 60 78 5 24 1 41 -14 66 -34 54 -28 77 34 132 72 63
132 86 179 68 27 -10 19 -57 -13 -78 -15 -11 -33 -34 -40 -52 -6 -18 -23 -39
-36 -48 -33 -22 -31 -54 5 -90 34 -33 37 -52 14 -85 -12 -16 -23 -22 -41 -18
-19 3 -30 -4 -55 -39 -17 -24 -37 -44 -44 -44 -6 0 -15 -7 -18 -15 -7 -18 16
-30 40 -21 10 4 25 -1 35 -10 17 -15 20 -15 45 5 16 13 41 21 64 21 31 0 41 6
63 38 15 20 36 57 47 81 17 37 19 49 9 73 -16 38 -40 65 -64 69 -32 7 -30 44
6 89 43 53 46 113 8 142 -21 16 -43 20 -117 20 -70 1 -92 4 -92 15 0 7 4 13 9
13 5 0 16 13 24 28 12 24 12 32 -2 60 -14 30 -17 32 -72 32 -36 0 -61 -5 -68
-14z m296 -538 c-3 -8 -6 -5 -6 6 -1 11 2 17 5 13 3 -3 4 -12 1 -19z"/>
<path d="M1065 1700 c-5 -8 3 -11 26 -8 31 3 34 0 37 -26 3 -25 -6 -38 -64
-92 -37 -35 -71 -64 -76 -64 -4 0 -25 -17 -48 -37 -65 -61 -70 -64 -99 -73
-64 -18 -110 45 -54 74 16 8 34 25 41 38 13 23 102 84 151 103 44 17 71 39 71
57 0 23 -17 23 -60 -1 -19 -10 -46 -22 -60 -26 -14 -4 -49 -23 -78 -41 -29
-19 -59 -34 -66 -34 -16 0 -126 -122 -126 -139 0 -7 -8 -28 -18 -49 -28 -57
-14 -96 39 -107 51 -12 136 36 309 174 107 85 117 96 150 158 32 61 21 97 -32
101 -20 2 -39 -2 -43 -8z m-325 -331 c0 -24 -23 -21 -28 4 -2 10 3 17 12 17
10 0 16 -9 16 -21z"/>
<path d="M1307 1545 c-20 -14 -37 -31 -37 -38 -1 -30 -48 -66 -96 -72 -27 -4
-53 -11 -59 -15 -5 -4 -22 -10 -37 -14 -17 -4 -39 -23 -58 -51 -17 -25 -34
-46 -38 -46 -4 -1 -22 -3 -41 -5 -19 -2 -44 -12 -55 -22 -12 -10 -41 -27 -66
-37 -79 -33 -76 -26 -51 -135 12 -54 75 -206 94 -229 8 -9 17 -34 20 -56 5
-31 16 -49 51 -80 31 -27 48 -51 53 -75 3 -19 12 -46 20 -60 7 -14 13 -37 13
-52 0 -34 39 -63 74 -54 14 3 37 16 53 29 29 24 67 41 116 51 15 4 47 22 71
40 46 35 66 40 178 52 l66 6 59 69 c89 103 91 110 63 167 -13 26 -27 49 -30
52 -14 10 -68 136 -76 175 -4 22 -15 51 -25 64 -11 13 -19 40 -19 59 0 41 -40
115 -80 149 -20 17 -26 29 -23 47 7 33 -49 106 -81 106 -12 0 -38 -11 -59 -25z
m145 -163 c33 -75 36 -94 22 -134 -11 -32 -10 -38 3 -50 27 -22 63 -86 63
-112 0 -43 10 -56 44 -56 29 0 34 -6 68 -75 l37 -75 -24 -28 c-31 -37 -122
-84 -146 -77 -11 4 -26 21 -35 38 -21 40 -48 67 -69 67 -13 0 -12 4 5 22 11
12 20 34 20 50 0 15 5 28 10 28 6 0 10 9 10 19 0 12 8 21 23 24 21 4 21 5 2
11 -28 10 -68 102 -62 142 l5 31 -36 -17 c-33 -16 -38 -16 -48 -2 -7 9 -20 13
-37 10 -15 -3 -27 -2 -27 2 0 5 -8 6 -19 3 -25 -7 -38 17 -18 32 22 16 21 27
-3 68 -37 62 -16 92 95 138 54 23 89 5 117 -59z m-250 -95 c12 -16 1 -99 -14
-108 -24 -15 1 -40 39 -38 57 1 95 -11 126 -39 23 -22 27 -33 27 -83 0 -45 -6
-66 -24 -94 -14 -20 -26 -40 -28 -45 -3 -9 -65 -13 -120 -8 -10 1 -34 19 -55
40 -33 33 -37 44 -37 88 0 36 6 58 23 81 21 28 22 32 6 49 -23 25 -50 15 -76
-28 -38 -65 -45 -126 -17 -161 10 -13 21 -41 24 -62 7 -39 10 -41 104 -53 34
-5 77 -22 85 -35 12 -20 25 -11 25 18 0 33 31 51 54 32 6 -5 21 -8 32 -5 12 3
28 -4 43 -19 19 -21 21 -29 11 -47 -12 -22 -88 -60 -121 -60 -12 0 -24 -12
-33 -35 -8 -19 -25 -40 -38 -45 -13 -5 -30 -14 -38 -19 -94 -53 -101 -52 -151
37 -26 47 -30 63 -26 105 l4 49 -33 -6 -33 -7 1 48 c0 26 -2 68 -4 93 -4 42
-6 45 -37 50 -30 4 -38 13 -73 82 -52 101 -49 113 42 156 61 29 73 32 105 23
34 -9 40 -7 88 30 42 32 58 39 82 34 16 -3 33 -11 37 -18z"/>
<path d="M550 1282 c0 -12 19 -26 26 -19 2 2 -2 10 -11 17 -9 8 -15 8 -15 2z"/>
<path d="M1984 1145 c-3 -8 -3 -19 1 -25 9 -14 35 6 35 26 0 19 -29 18 -36 -1z"/>
<path d="M322 953 c-46 -7 -101 -22 -123 -34 -57 -29 -119 -94 -119 -125 0
-37 73 -68 165 -69 92 -2 98 -6 90 -64 -8 -56 4 -70 62 -78 28 -4 49 1 76 16
21 12 40 21 42 21 9 0 5 -61 -5 -79 -12 -24 -39 -34 -55 -21 -8 6 -18 5 -31
-5 -18 -13 -18 -15 -1 -32 15 -15 20 -16 38 -5 27 17 50 8 78 -28 24 -34 44
-33 113 1 21 11 47 19 58 19 16 0 27 13 42 48 11 26 29 57 40 69 13 14 18 29
14 39 -6 15 -12 12 -44 -19 -39 -38 -59 -43 -122 -31 -36 8 -63 54 -54 91 8
28 -7 35 -40 18 -15 -8 -39 -16 -54 -17 -27 -3 -27 -2 -27 59 l0 62 -61 -6
c-49 -4 -68 -2 -93 13 -37 22 -38 30 -8 55 36 32 83 49 136 49 46 0 52 -3 78
-36 15 -20 34 -57 43 -83 l15 -46 63 -3 c49 -2 64 1 68 13 8 20 -15 47 -35 41
-19 -6 -64 29 -59 45 2 6 24 19 48 28 31 11 46 23 48 37 6 38 -23 48 -157 54
-69 3 -130 8 -136 11 -5 3 -47 -1 -93 -8z m-76 -124 c10 -16 -7 -27 -46 -31
-25 -2 -35 1 -35 12 0 22 69 38 81 19z"/>
</g>
</svg>
